<svg xmlns="http://www.w3.org/2000/svg" width="16" height="6" fill="currentColor"><rect id="backgroundrect" width="100%" height="100%" x="0" y="0" fill="none" stroke="none" class="" style=""/>
  
<g class="currentLayer" style=""><title>Layer 1</title><path d="M4.30303031206131,1.0018148647561134 a2,2 0 1 1 0,4 a2,2 0 0 1 0,-4 zm2.625,0.547 a3,3 0 0 0 -5.584,0.9530000000000003 H0.8030303120613098 a0.5,0.5 0 0 0 0,1 h0.541 A3,3 0 0 0 7.30303031206131,3.0018148647561134 a1,1 0 0 1 2,0 a3,3 0 0 0 5.959,0.5 h0.541 a0.5,0.5 0 0 0 0,-1 h-0.541 a3,3 0 0 0 -5.584,-0.9530000000000003 A1.9929999999999999,1.9929999999999999 0 0 0 8.30303031206131,1.0018148647561134 c-0.532,0 -1.016,0.20800000000000007 -1.375,0.547 zM14.30303031206131,3.0018148647561134 a2,2 0 1 1 -4,0 a2,2 0 0 1 4,0 z" id="svg_1" class="selected" fill="#ffffff" fill-opacity="1"/></g></svg>